<?xml version="1.0" encoding="UTF-8"?>
<svg id="Layer_1" data-name="Layer 1" xmlns="http://www.w3.org/2000/svg" viewBox="0 0 601 601">
  <defs>
    <style>
      .cls-1 {
        fill: none;
      }

      .cls-1, .cls-2 {
        stroke: #231f20;
        stroke-miterlimit: 10;
      }

      .cls-2 {
        fill: #fff;
        stroke-width: .06px;
      }

      .cls-3 {
        fill: #0047ab;
        stroke-width: 0px;
      }
    </style>
  </defs>
  <rect class="cls-1" x=".5" y=".5" width="600" height="600"/>
  <g>
    <path class="cls-2" d="M296.68,323.16v38.78h-15.27v-44.01l9.22.06c.37.29.75.55,1.15.81l4.91,4.36Z"/>
    <path class="cls-3" d="M327.24,297.17c-.11,2.43-.9,4.85-2.36,7l42.38.28-.11,14.04-47.57-.32-9.12-.06-6.15,5.85-3.25,3.09-4.39-3.9-4.91-4.36c-.39-.25-.77-.52-1.15-.81l-9.22-.06-47.85-.32.11-14.04,41.81.28c-1.24-2.18-1.82-4.61-1.74-7.03l-40.02-.27.11-14.04,47.57.32v-43.75h15.27v43.86l7.63.05v-43.91h15.27v44.01l47.85.32-.11,14.04-40.08-.27Z"/>
    <polygon class="cls-2" points="319.59 318.18 319.59 361.93 304.32 361.93 304.32 323.97 310.47 318.12 319.59 318.18"/>
  </g>
</svg>